<mxfile host="app.diagrams.net" modified="2023-11-27T05:29:38.334Z" agent="Mozilla/5.0 (Windows NT 10.0; Win64; x64) AppleWebKit/537.36 (KHTML, like Gecko) Chrome/119.0.0.0 Safari/537.36" etag="rXhoJUaTWa4gsPrRF4Dl" version="22.1.4" type="device">
  <diagram id="C5RBs43oDa-KdzZeNtuy" name="Page-1">
    <mxGraphModel dx="772" dy="330" grid="1" gridSize="10" guides="1" tooltips="1" connect="1" arrows="1" fold="1" page="1" pageScale="1" pageWidth="827" pageHeight="1169" math="0" shadow="0">
      <root>
        <mxCell id="WIyWlLk6GJQsqaUBKTNV-0" />
        <mxCell id="WIyWlLk6GJQsqaUBKTNV-1" parent="WIyWlLk6GJQsqaUBKTNV-0" />
        <mxCell id="z1cHuliVXPMH2H2w3VBW-0" value="" style="edgeStyle=orthogonalEdgeStyle;rounded=0;orthogonalLoop=1;jettySize=auto;html=1;" edge="1" parent="WIyWlLk6GJQsqaUBKTNV-1" source="z1cHuliVXPMH2H2w3VBW-1" target="z1cHuliVXPMH2H2w3VBW-6">
          <mxGeometry relative="1" as="geometry" />
        </mxCell>
        <mxCell id="z1cHuliVXPMH2H2w3VBW-1" value="int prime(int n)" style="ellipse;whiteSpace=wrap;html=1;" vertex="1" parent="WIyWlLk6GJQsqaUBKTNV-1">
          <mxGeometry x="300" y="210" width="120" height="80" as="geometry" />
        </mxCell>
        <mxCell id="z1cHuliVXPMH2H2w3VBW-2" value="" style="edgeStyle=orthogonalEdgeStyle;rounded=0;orthogonalLoop=1;jettySize=auto;html=1;" edge="1" parent="WIyWlLk6GJQsqaUBKTNV-1" source="z1cHuliVXPMH2H2w3VBW-6" target="z1cHuliVXPMH2H2w3VBW-7">
          <mxGeometry relative="1" as="geometry" />
        </mxCell>
        <mxCell id="z1cHuliVXPMH2H2w3VBW-3" value="true" style="edgeLabel;html=1;align=center;verticalAlign=middle;resizable=0;points=[];" vertex="1" connectable="0" parent="z1cHuliVXPMH2H2w3VBW-2">
          <mxGeometry x="-0.0571" y="-4" relative="1" as="geometry">
            <mxPoint y="1" as="offset" />
          </mxGeometry>
        </mxCell>
        <mxCell id="z1cHuliVXPMH2H2w3VBW-4" value="" style="edgeStyle=orthogonalEdgeStyle;rounded=0;orthogonalLoop=1;jettySize=auto;html=1;" edge="1" parent="WIyWlLk6GJQsqaUBKTNV-1" source="z1cHuliVXPMH2H2w3VBW-6" target="z1cHuliVXPMH2H2w3VBW-11">
          <mxGeometry relative="1" as="geometry" />
        </mxCell>
        <mxCell id="z1cHuliVXPMH2H2w3VBW-5" value="false" style="edgeLabel;html=1;align=center;verticalAlign=middle;resizable=0;points=[];" vertex="1" connectable="0" parent="z1cHuliVXPMH2H2w3VBW-4">
          <mxGeometry x="-0.2" y="1" relative="1" as="geometry">
            <mxPoint as="offset" />
          </mxGeometry>
        </mxCell>
        <mxCell id="z1cHuliVXPMH2H2w3VBW-6" value="n&amp;lt;2" style="rhombus;whiteSpace=wrap;html=1;" vertex="1" parent="WIyWlLk6GJQsqaUBKTNV-1">
          <mxGeometry x="510" y="210" width="80" height="80" as="geometry" />
        </mxCell>
        <mxCell id="z1cHuliVXPMH2H2w3VBW-7" value="return false;" style="rounded=0;whiteSpace=wrap;html=1;" vertex="1" parent="WIyWlLk6GJQsqaUBKTNV-1">
          <mxGeometry x="660" y="220" width="120" height="60" as="geometry" />
        </mxCell>
        <mxCell id="z1cHuliVXPMH2H2w3VBW-8" value="" style="edgeStyle=orthogonalEdgeStyle;rounded=0;orthogonalLoop=1;jettySize=auto;html=1;" edge="1" parent="WIyWlLk6GJQsqaUBKTNV-1" source="z1cHuliVXPMH2H2w3VBW-11" target="z1cHuliVXPMH2H2w3VBW-12">
          <mxGeometry relative="1" as="geometry" />
        </mxCell>
        <mxCell id="z1cHuliVXPMH2H2w3VBW-9" value="true" style="edgeLabel;html=1;align=center;verticalAlign=middle;resizable=0;points=[];" vertex="1" connectable="0" parent="z1cHuliVXPMH2H2w3VBW-8">
          <mxGeometry x="-0.0286" y="-3" relative="1" as="geometry">
            <mxPoint as="offset" />
          </mxGeometry>
        </mxCell>
        <mxCell id="z1cHuliVXPMH2H2w3VBW-10" value="" style="edgeStyle=orthogonalEdgeStyle;rounded=0;orthogonalLoop=1;jettySize=auto;html=1;" edge="1" parent="WIyWlLk6GJQsqaUBKTNV-1" source="z1cHuliVXPMH2H2w3VBW-11" target="z1cHuliVXPMH2H2w3VBW-26">
          <mxGeometry relative="1" as="geometry" />
        </mxCell>
        <mxCell id="z1cHuliVXPMH2H2w3VBW-11" value="n==2||n==3" style="rhombus;whiteSpace=wrap;html=1;" vertex="1" parent="WIyWlLk6GJQsqaUBKTNV-1">
          <mxGeometry x="510" y="340" width="80" height="80" as="geometry" />
        </mxCell>
        <mxCell id="z1cHuliVXPMH2H2w3VBW-12" value="return true;" style="rounded=0;whiteSpace=wrap;html=1;" vertex="1" parent="WIyWlLk6GJQsqaUBKTNV-1">
          <mxGeometry x="680" y="350" width="120" height="60" as="geometry" />
        </mxCell>
        <mxCell id="z1cHuliVXPMH2H2w3VBW-13" value="false" style="text;html=1;align=center;verticalAlign=middle;resizable=0;points=[];autosize=1;strokeColor=none;fillColor=none;" vertex="1" parent="WIyWlLk6GJQsqaUBKTNV-1">
          <mxGeometry x="525" y="440" width="50" height="30" as="geometry" />
        </mxCell>
        <mxCell id="z1cHuliVXPMH2H2w3VBW-14" value="i++" style="rounded=0;whiteSpace=wrap;html=1;" vertex="1" parent="WIyWlLk6GJQsqaUBKTNV-1">
          <mxGeometry x="770" y="480" width="120" height="60" as="geometry" />
        </mxCell>
        <mxCell id="z1cHuliVXPMH2H2w3VBW-15" value="" style="edgeStyle=orthogonalEdgeStyle;rounded=0;orthogonalLoop=1;jettySize=auto;html=1;" edge="1" parent="WIyWlLk6GJQsqaUBKTNV-1" source="z1cHuliVXPMH2H2w3VBW-18" target="z1cHuliVXPMH2H2w3VBW-21">
          <mxGeometry relative="1" as="geometry" />
        </mxCell>
        <mxCell id="z1cHuliVXPMH2H2w3VBW-16" value="false" style="edgeLabel;html=1;align=center;verticalAlign=middle;resizable=0;points=[];" vertex="1" connectable="0" parent="z1cHuliVXPMH2H2w3VBW-15">
          <mxGeometry x="-0.2885" relative="1" as="geometry">
            <mxPoint y="1" as="offset" />
          </mxGeometry>
        </mxCell>
        <mxCell id="z1cHuliVXPMH2H2w3VBW-17" value="" style="edgeStyle=orthogonalEdgeStyle;rounded=0;orthogonalLoop=1;jettySize=auto;html=1;" edge="1" parent="WIyWlLk6GJQsqaUBKTNV-1" source="z1cHuliVXPMH2H2w3VBW-18" target="z1cHuliVXPMH2H2w3VBW-23">
          <mxGeometry relative="1" as="geometry" />
        </mxCell>
        <mxCell id="z1cHuliVXPMH2H2w3VBW-18" value="n%i == 0" style="rhombus;whiteSpace=wrap;html=1;" vertex="1" parent="WIyWlLk6GJQsqaUBKTNV-1">
          <mxGeometry x="900" y="470" width="80" height="80" as="geometry" />
        </mxCell>
        <mxCell id="z1cHuliVXPMH2H2w3VBW-19" value="true" style="edgeLabel;html=1;align=center;verticalAlign=middle;resizable=0;points=[];" vertex="1" connectable="0" parent="WIyWlLk6GJQsqaUBKTNV-1">
          <mxGeometry x="1000" y="510" as="geometry" />
        </mxCell>
        <mxCell id="z1cHuliVXPMH2H2w3VBW-20" style="edgeStyle=orthogonalEdgeStyle;rounded=0;orthogonalLoop=1;jettySize=auto;html=1;exitX=0.5;exitY=1;exitDx=0;exitDy=0;" edge="1" parent="WIyWlLk6GJQsqaUBKTNV-1" source="z1cHuliVXPMH2H2w3VBW-21">
          <mxGeometry relative="1" as="geometry">
            <mxPoint x="620" y="520" as="targetPoint" />
            <mxPoint x="865" y="724" as="sourcePoint" />
          </mxGeometry>
        </mxCell>
        <mxCell id="z1cHuliVXPMH2H2w3VBW-21" value="return false;" style="rounded=0;whiteSpace=wrap;html=1;" vertex="1" parent="WIyWlLk6GJQsqaUBKTNV-1">
          <mxGeometry x="870" y="602" width="120" height="60" as="geometry" />
        </mxCell>
        <mxCell id="z1cHuliVXPMH2H2w3VBW-22" style="edgeStyle=orthogonalEdgeStyle;rounded=0;orthogonalLoop=1;jettySize=auto;html=1;exitX=0.5;exitY=1;exitDx=0;exitDy=0;" edge="1" parent="WIyWlLk6GJQsqaUBKTNV-1" source="z1cHuliVXPMH2H2w3VBW-23">
          <mxGeometry relative="1" as="geometry">
            <mxPoint x="620" y="510" as="targetPoint" />
            <Array as="points">
              <mxPoint x="1090" y="770" />
              <mxPoint x="620" y="770" />
            </Array>
          </mxGeometry>
        </mxCell>
        <mxCell id="z1cHuliVXPMH2H2w3VBW-23" value="return true;" style="rounded=0;whiteSpace=wrap;html=1;" vertex="1" parent="WIyWlLk6GJQsqaUBKTNV-1">
          <mxGeometry x="1030" y="480" width="120" height="60" as="geometry" />
        </mxCell>
        <mxCell id="z1cHuliVXPMH2H2w3VBW-24" value="" style="edgeStyle=orthogonalEdgeStyle;rounded=0;orthogonalLoop=1;jettySize=auto;html=1;exitX=1;exitY=0.5;exitDx=0;exitDy=0;" edge="1" parent="WIyWlLk6GJQsqaUBKTNV-1" source="z1cHuliVXPMH2H2w3VBW-14" target="z1cHuliVXPMH2H2w3VBW-18">
          <mxGeometry relative="1" as="geometry">
            <mxPoint x="840" y="510" as="sourcePoint" />
          </mxGeometry>
        </mxCell>
        <mxCell id="z1cHuliVXPMH2H2w3VBW-25" value="" style="edgeStyle=orthogonalEdgeStyle;rounded=0;orthogonalLoop=1;jettySize=auto;html=1;" edge="1" parent="WIyWlLk6GJQsqaUBKTNV-1" source="z1cHuliVXPMH2H2w3VBW-26" target="z1cHuliVXPMH2H2w3VBW-31">
          <mxGeometry relative="1" as="geometry" />
        </mxCell>
        <mxCell id="z1cHuliVXPMH2H2w3VBW-26" value="int i=0" style="rounded=0;whiteSpace=wrap;html=1;" vertex="1" parent="WIyWlLk6GJQsqaUBKTNV-1">
          <mxGeometry x="480" y="480" width="120" height="60" as="geometry" />
        </mxCell>
        <mxCell id="z1cHuliVXPMH2H2w3VBW-27" value="" style="edgeStyle=orthogonalEdgeStyle;rounded=0;orthogonalLoop=1;jettySize=auto;html=1;" edge="1" parent="WIyWlLk6GJQsqaUBKTNV-1" source="z1cHuliVXPMH2H2w3VBW-31" target="z1cHuliVXPMH2H2w3VBW-14">
          <mxGeometry relative="1" as="geometry" />
        </mxCell>
        <mxCell id="z1cHuliVXPMH2H2w3VBW-28" value="true" style="edgeLabel;html=1;align=center;verticalAlign=middle;resizable=0;points=[];" vertex="1" connectable="0" parent="z1cHuliVXPMH2H2w3VBW-27">
          <mxGeometry x="0.2" y="1" relative="1" as="geometry">
            <mxPoint as="offset" />
          </mxGeometry>
        </mxCell>
        <mxCell id="z1cHuliVXPMH2H2w3VBW-29" value="" style="edgeStyle=orthogonalEdgeStyle;rounded=0;orthogonalLoop=1;jettySize=auto;html=1;" edge="1" parent="WIyWlLk6GJQsqaUBKTNV-1" source="z1cHuliVXPMH2H2w3VBW-31" target="z1cHuliVXPMH2H2w3VBW-32">
          <mxGeometry relative="1" as="geometry" />
        </mxCell>
        <mxCell id="z1cHuliVXPMH2H2w3VBW-30" value="false" style="edgeLabel;html=1;align=center;verticalAlign=middle;resizable=0;points=[];" vertex="1" connectable="0" parent="z1cHuliVXPMH2H2w3VBW-29">
          <mxGeometry x="-0.0952" y="1" relative="1" as="geometry">
            <mxPoint as="offset" />
          </mxGeometry>
        </mxCell>
        <mxCell id="z1cHuliVXPMH2H2w3VBW-31" value="i&amp;lt;n" style="rhombus;whiteSpace=wrap;html=1;" vertex="1" parent="WIyWlLk6GJQsqaUBKTNV-1">
          <mxGeometry x="640" y="470" width="80" height="80" as="geometry" />
        </mxCell>
        <mxCell id="z1cHuliVXPMH2H2w3VBW-32" value="end" style="ellipse;whiteSpace=wrap;html=1;" vertex="1" parent="WIyWlLk6GJQsqaUBKTNV-1">
          <mxGeometry x="620" y="592" width="120" height="80" as="geometry" />
        </mxCell>
        <mxCell id="z1cHuliVXPMH2H2w3VBW-33" value="" style="edgeStyle=orthogonalEdgeStyle;rounded=0;orthogonalLoop=1;jettySize=auto;html=1;" edge="1" parent="WIyWlLk6GJQsqaUBKTNV-1" source="z1cHuliVXPMH2H2w3VBW-34" target="z1cHuliVXPMH2H2w3VBW-36">
          <mxGeometry relative="1" as="geometry" />
        </mxCell>
        <mxCell id="z1cHuliVXPMH2H2w3VBW-34" value="start" style="ellipse;whiteSpace=wrap;html=1;" vertex="1" parent="WIyWlLk6GJQsqaUBKTNV-1">
          <mxGeometry x="230" y="760" width="120" height="80" as="geometry" />
        </mxCell>
        <mxCell id="z1cHuliVXPMH2H2w3VBW-35" value="" style="edgeStyle=orthogonalEdgeStyle;rounded=0;orthogonalLoop=1;jettySize=auto;html=1;" edge="1" parent="WIyWlLk6GJQsqaUBKTNV-1" source="z1cHuliVXPMH2H2w3VBW-36" target="z1cHuliVXPMH2H2w3VBW-38">
          <mxGeometry relative="1" as="geometry" />
        </mxCell>
        <mxCell id="z1cHuliVXPMH2H2w3VBW-36" value="&lt;div&gt;&amp;nbsp;int n,m;&lt;/div&gt;&lt;div&gt;&amp;nbsp; &amp;nbsp; int i,j,f=0;&lt;/div&gt;&lt;div&gt;&amp;nbsp; &amp;nbsp; int choice;&lt;/div&gt;&lt;div&gt;&amp;nbsp; &amp;nbsp; int a[100][100];&lt;/div&gt;" style="shape=label;whiteSpace=wrap;html=1;fixedSize=1;rounded=0;" vertex="1" parent="WIyWlLk6GJQsqaUBKTNV-1">
          <mxGeometry x="240" y="900" width="120" height="60" as="geometry" />
        </mxCell>
        <mxCell id="z1cHuliVXPMH2H2w3VBW-37" value="" style="edgeStyle=orthogonalEdgeStyle;rounded=0;orthogonalLoop=1;jettySize=auto;html=1;exitX=0.408;exitY=1.038;exitDx=0;exitDy=0;exitPerimeter=0;" edge="1" parent="WIyWlLk6GJQsqaUBKTNV-1" source="z1cHuliVXPMH2H2w3VBW-38" target="z1cHuliVXPMH2H2w3VBW-41">
          <mxGeometry relative="1" as="geometry">
            <Array as="points">
              <mxPoint x="320" y="1052" />
              <mxPoint x="320" y="1250" />
            </Array>
          </mxGeometry>
        </mxCell>
        <mxCell id="z1cHuliVXPMH2H2w3VBW-38" value="choice" style="shape=parallelogram;perimeter=parallelogramPerimeter;whiteSpace=wrap;html=1;fixedSize=1;" vertex="1" parent="WIyWlLk6GJQsqaUBKTNV-1">
          <mxGeometry x="240" y="990" width="120" height="60" as="geometry" />
        </mxCell>
        <mxCell id="z1cHuliVXPMH2H2w3VBW-39" value="" style="edgeStyle=orthogonalEdgeStyle;rounded=0;orthogonalLoop=1;jettySize=auto;html=1;" edge="1" parent="WIyWlLk6GJQsqaUBKTNV-1" source="z1cHuliVXPMH2H2w3VBW-41" target="z1cHuliVXPMH2H2w3VBW-43">
          <mxGeometry relative="1" as="geometry" />
        </mxCell>
        <mxCell id="z1cHuliVXPMH2H2w3VBW-40" value="true" style="edgeLabel;html=1;align=center;verticalAlign=middle;resizable=0;points=[];" vertex="1" connectable="0" parent="z1cHuliVXPMH2H2w3VBW-39">
          <mxGeometry x="-0.2" y="1" relative="1" as="geometry">
            <mxPoint as="offset" />
          </mxGeometry>
        </mxCell>
        <mxCell id="z1cHuliVXPMH2H2w3VBW-41" value="choice==1" style="rhombus;whiteSpace=wrap;html=1;" vertex="1" parent="WIyWlLk6GJQsqaUBKTNV-1">
          <mxGeometry x="450" y="1210" width="80" height="80" as="geometry" />
        </mxCell>
        <mxCell id="z1cHuliVXPMH2H2w3VBW-42" value="" style="edgeStyle=orthogonalEdgeStyle;rounded=0;orthogonalLoop=1;jettySize=auto;html=1;" edge="1" parent="WIyWlLk6GJQsqaUBKTNV-1" source="z1cHuliVXPMH2H2w3VBW-43" target="z1cHuliVXPMH2H2w3VBW-45">
          <mxGeometry relative="1" as="geometry" />
        </mxCell>
        <mxCell id="z1cHuliVXPMH2H2w3VBW-43" value="n,m" style="rounded=0;whiteSpace=wrap;html=1;shape=parallelogram;perimeter=parallelogramPerimeter;fixedSize=1;" vertex="1" parent="WIyWlLk6GJQsqaUBKTNV-1">
          <mxGeometry x="590" y="1220" width="120" height="60" as="geometry" />
        </mxCell>
        <mxCell id="z1cHuliVXPMH2H2w3VBW-44" value="" style="edgeStyle=orthogonalEdgeStyle;rounded=0;orthogonalLoop=1;jettySize=auto;html=1;" edge="1" parent="WIyWlLk6GJQsqaUBKTNV-1" source="z1cHuliVXPMH2H2w3VBW-45" target="z1cHuliVXPMH2H2w3VBW-49">
          <mxGeometry relative="1" as="geometry" />
        </mxCell>
        <mxCell id="z1cHuliVXPMH2H2w3VBW-45" value="i=1" style="rounded=0;whiteSpace=wrap;html=1;" vertex="1" parent="WIyWlLk6GJQsqaUBKTNV-1">
          <mxGeometry x="780" y="1220" width="120" height="60" as="geometry" />
        </mxCell>
        <mxCell id="z1cHuliVXPMH2H2w3VBW-46" value="" style="edgeStyle=orthogonalEdgeStyle;rounded=0;orthogonalLoop=1;jettySize=auto;html=1;" edge="1" parent="WIyWlLk6GJQsqaUBKTNV-1" source="z1cHuliVXPMH2H2w3VBW-49" target="z1cHuliVXPMH2H2w3VBW-51">
          <mxGeometry relative="1" as="geometry" />
        </mxCell>
        <mxCell id="z1cHuliVXPMH2H2w3VBW-47" value="true" style="edgeLabel;html=1;align=center;verticalAlign=middle;resizable=0;points=[];" vertex="1" connectable="0" parent="z1cHuliVXPMH2H2w3VBW-46">
          <mxGeometry x="-0.3" relative="1" as="geometry">
            <mxPoint y="1" as="offset" />
          </mxGeometry>
        </mxCell>
        <mxCell id="z1cHuliVXPMH2H2w3VBW-48" style="edgeStyle=orthogonalEdgeStyle;rounded=0;orthogonalLoop=1;jettySize=auto;html=1;entryX=1;entryY=0.5;entryDx=0;entryDy=0;" edge="1" parent="WIyWlLk6GJQsqaUBKTNV-1" source="z1cHuliVXPMH2H2w3VBW-49" target="z1cHuliVXPMH2H2w3VBW-38">
          <mxGeometry relative="1" as="geometry">
            <Array as="points">
              <mxPoint x="970" y="1400" />
              <mxPoint x="2110" y="1400" />
              <mxPoint x="2110" y="1020" />
            </Array>
          </mxGeometry>
        </mxCell>
        <mxCell id="z1cHuliVXPMH2H2w3VBW-49" value="i&amp;lt;n" style="rhombus;whiteSpace=wrap;html=1;" vertex="1" parent="WIyWlLk6GJQsqaUBKTNV-1">
          <mxGeometry x="930" y="1210" width="80" height="80" as="geometry" />
        </mxCell>
        <mxCell id="z1cHuliVXPMH2H2w3VBW-50" value="" style="edgeStyle=orthogonalEdgeStyle;rounded=0;orthogonalLoop=1;jettySize=auto;html=1;" edge="1" parent="WIyWlLk6GJQsqaUBKTNV-1" source="z1cHuliVXPMH2H2w3VBW-51" target="z1cHuliVXPMH2H2w3VBW-57">
          <mxGeometry relative="1" as="geometry" />
        </mxCell>
        <mxCell id="z1cHuliVXPMH2H2w3VBW-51" value="j=0" style="rounded=0;whiteSpace=wrap;html=1;" vertex="1" parent="WIyWlLk6GJQsqaUBKTNV-1">
          <mxGeometry x="1060" y="1220" width="120" height="60" as="geometry" />
        </mxCell>
        <mxCell id="z1cHuliVXPMH2H2w3VBW-52" value="" style="edgeStyle=orthogonalEdgeStyle;rounded=0;orthogonalLoop=1;jettySize=auto;html=1;" edge="1" parent="WIyWlLk6GJQsqaUBKTNV-1" source="z1cHuliVXPMH2H2w3VBW-57" target="z1cHuliVXPMH2H2w3VBW-59">
          <mxGeometry relative="1" as="geometry" />
        </mxCell>
        <mxCell id="z1cHuliVXPMH2H2w3VBW-53" value="true" style="edgeLabel;html=1;align=center;verticalAlign=middle;resizable=0;points=[];" vertex="1" connectable="0" parent="z1cHuliVXPMH2H2w3VBW-52">
          <mxGeometry x="0.1186" y="3" relative="1" as="geometry">
            <mxPoint x="1" as="offset" />
          </mxGeometry>
        </mxCell>
        <mxCell id="z1cHuliVXPMH2H2w3VBW-54" style="edgeStyle=orthogonalEdgeStyle;rounded=0;orthogonalLoop=1;jettySize=auto;html=1;entryX=1;entryY=0.5;entryDx=0;entryDy=0;" edge="1" parent="WIyWlLk6GJQsqaUBKTNV-1" source="z1cHuliVXPMH2H2w3VBW-57" target="z1cHuliVXPMH2H2w3VBW-61">
          <mxGeometry relative="1" as="geometry">
            <mxPoint x="1160" y="1140" as="targetPoint" />
            <Array as="points">
              <mxPoint x="1281" y="1130" />
            </Array>
          </mxGeometry>
        </mxCell>
        <mxCell id="z1cHuliVXPMH2H2w3VBW-55" value="fa" style="edgeLabel;html=1;align=center;verticalAlign=middle;resizable=0;points=[];" vertex="1" connectable="0" parent="z1cHuliVXPMH2H2w3VBW-54">
          <mxGeometry x="-0.5867" y="5" relative="1" as="geometry">
            <mxPoint y="1" as="offset" />
          </mxGeometry>
        </mxCell>
        <mxCell id="z1cHuliVXPMH2H2w3VBW-56" value="false" style="edgeLabel;html=1;align=center;verticalAlign=middle;resizable=0;points=[];" vertex="1" connectable="0" parent="z1cHuliVXPMH2H2w3VBW-54">
          <mxGeometry x="-0.5249" y="1" relative="1" as="geometry">
            <mxPoint y="-1" as="offset" />
          </mxGeometry>
        </mxCell>
        <mxCell id="z1cHuliVXPMH2H2w3VBW-57" value="j&amp;lt;m" style="rhombus;whiteSpace=wrap;html=1;" vertex="1" parent="WIyWlLk6GJQsqaUBKTNV-1">
          <mxGeometry x="1241" y="1210" width="80" height="80" as="geometry" />
        </mxCell>
        <mxCell id="z1cHuliVXPMH2H2w3VBW-58" style="edgeStyle=orthogonalEdgeStyle;rounded=0;orthogonalLoop=1;jettySize=auto;html=1;" edge="1" parent="WIyWlLk6GJQsqaUBKTNV-1" source="z1cHuliVXPMH2H2w3VBW-59">
          <mxGeometry relative="1" as="geometry">
            <mxPoint x="1200" y="1250" as="targetPoint" />
            <Array as="points">
              <mxPoint x="1440" y="1360" />
              <mxPoint x="1200" y="1360" />
            </Array>
          </mxGeometry>
        </mxCell>
        <mxCell id="z1cHuliVXPMH2H2w3VBW-59" value="a[i][j]&lt;br&gt;j++" style="rounded=0;whiteSpace=wrap;html=1;" vertex="1" parent="WIyWlLk6GJQsqaUBKTNV-1">
          <mxGeometry x="1380" y="1220" width="120" height="60" as="geometry" />
        </mxCell>
        <mxCell id="z1cHuliVXPMH2H2w3VBW-60" style="edgeStyle=orthogonalEdgeStyle;rounded=0;orthogonalLoop=1;jettySize=auto;html=1;" edge="1" parent="WIyWlLk6GJQsqaUBKTNV-1" source="z1cHuliVXPMH2H2w3VBW-61">
          <mxGeometry relative="1" as="geometry">
            <mxPoint x="920" y="1250" as="targetPoint" />
          </mxGeometry>
        </mxCell>
        <mxCell id="z1cHuliVXPMH2H2w3VBW-61" value="i++" style="rounded=0;whiteSpace=wrap;html=1;" vertex="1" parent="WIyWlLk6GJQsqaUBKTNV-1">
          <mxGeometry x="1060" y="1100" width="120" height="60" as="geometry" />
        </mxCell>
        <mxCell id="z1cHuliVXPMH2H2w3VBW-62" value="" style="edgeStyle=orthogonalEdgeStyle;rounded=0;orthogonalLoop=1;jettySize=auto;html=1;" edge="1" parent="WIyWlLk6GJQsqaUBKTNV-1" source="z1cHuliVXPMH2H2w3VBW-66" target="z1cHuliVXPMH2H2w3VBW-70">
          <mxGeometry relative="1" as="geometry" />
        </mxCell>
        <mxCell id="z1cHuliVXPMH2H2w3VBW-63" value="trua" style="edgeLabel;html=1;align=center;verticalAlign=middle;resizable=0;points=[];" vertex="1" connectable="0" parent="z1cHuliVXPMH2H2w3VBW-62">
          <mxGeometry x="-0.2889" y="2" relative="1" as="geometry">
            <mxPoint as="offset" />
          </mxGeometry>
        </mxCell>
        <mxCell id="z1cHuliVXPMH2H2w3VBW-64" style="edgeStyle=orthogonalEdgeStyle;rounded=0;orthogonalLoop=1;jettySize=auto;html=1;" edge="1" parent="WIyWlLk6GJQsqaUBKTNV-1" source="z1cHuliVXPMH2H2w3VBW-66" target="z1cHuliVXPMH2H2w3VBW-90">
          <mxGeometry relative="1" as="geometry" />
        </mxCell>
        <mxCell id="z1cHuliVXPMH2H2w3VBW-65" value="faalse" style="edgeLabel;html=1;align=center;verticalAlign=middle;resizable=0;points=[];" vertex="1" connectable="0" parent="z1cHuliVXPMH2H2w3VBW-64">
          <mxGeometry x="0.0583" y="-2" relative="1" as="geometry">
            <mxPoint y="1" as="offset" />
          </mxGeometry>
        </mxCell>
        <mxCell id="z1cHuliVXPMH2H2w3VBW-66" value="choice==2" style="rhombus;whiteSpace=wrap;html=1;" vertex="1" parent="WIyWlLk6GJQsqaUBKTNV-1">
          <mxGeometry x="450" y="1560" width="80" height="80" as="geometry" />
        </mxCell>
        <mxCell id="z1cHuliVXPMH2H2w3VBW-67" style="edgeStyle=orthogonalEdgeStyle;rounded=0;orthogonalLoop=1;jettySize=auto;html=1;entryX=0.469;entryY=0.096;entryDx=0;entryDy=0;entryPerimeter=0;" edge="1" parent="WIyWlLk6GJQsqaUBKTNV-1" source="z1cHuliVXPMH2H2w3VBW-41" target="z1cHuliVXPMH2H2w3VBW-66">
          <mxGeometry relative="1" as="geometry" />
        </mxCell>
        <mxCell id="z1cHuliVXPMH2H2w3VBW-68" value="false" style="edgeLabel;html=1;align=center;verticalAlign=middle;resizable=0;points=[];" vertex="1" connectable="0" parent="z1cHuliVXPMH2H2w3VBW-67">
          <mxGeometry x="-0.122" y="-3" relative="1" as="geometry">
            <mxPoint as="offset" />
          </mxGeometry>
        </mxCell>
        <mxCell id="z1cHuliVXPMH2H2w3VBW-69" value="" style="edgeStyle=orthogonalEdgeStyle;rounded=0;orthogonalLoop=1;jettySize=auto;html=1;" edge="1" parent="WIyWlLk6GJQsqaUBKTNV-1" source="z1cHuliVXPMH2H2w3VBW-70" target="z1cHuliVXPMH2H2w3VBW-74">
          <mxGeometry relative="1" as="geometry" />
        </mxCell>
        <mxCell id="z1cHuliVXPMH2H2w3VBW-70" value="i=1" style="rounded=0;whiteSpace=wrap;html=1;" vertex="1" parent="WIyWlLk6GJQsqaUBKTNV-1">
          <mxGeometry x="575" y="1570" width="120" height="60" as="geometry" />
        </mxCell>
        <mxCell id="z1cHuliVXPMH2H2w3VBW-71" value="" style="edgeStyle=orthogonalEdgeStyle;rounded=0;orthogonalLoop=1;jettySize=auto;html=1;" edge="1" parent="WIyWlLk6GJQsqaUBKTNV-1" source="z1cHuliVXPMH2H2w3VBW-74" target="z1cHuliVXPMH2H2w3VBW-76">
          <mxGeometry relative="1" as="geometry" />
        </mxCell>
        <mxCell id="z1cHuliVXPMH2H2w3VBW-72" value="true" style="edgeLabel;html=1;align=center;verticalAlign=middle;resizable=0;points=[];" vertex="1" connectable="0" parent="z1cHuliVXPMH2H2w3VBW-71">
          <mxGeometry x="-0.3" relative="1" as="geometry">
            <mxPoint y="1" as="offset" />
          </mxGeometry>
        </mxCell>
        <mxCell id="z1cHuliVXPMH2H2w3VBW-73" style="edgeStyle=orthogonalEdgeStyle;rounded=0;orthogonalLoop=1;jettySize=auto;html=1;entryX=1;entryY=0.5;entryDx=0;entryDy=0;" edge="1" parent="WIyWlLk6GJQsqaUBKTNV-1" source="z1cHuliVXPMH2H2w3VBW-74" target="z1cHuliVXPMH2H2w3VBW-38">
          <mxGeometry relative="1" as="geometry">
            <Array as="points">
              <mxPoint x="765" y="1730" />
              <mxPoint x="2110" y="1730" />
              <mxPoint x="2110" y="1020" />
            </Array>
          </mxGeometry>
        </mxCell>
        <mxCell id="z1cHuliVXPMH2H2w3VBW-74" value="i&amp;lt;n" style="rhombus;whiteSpace=wrap;html=1;" vertex="1" parent="WIyWlLk6GJQsqaUBKTNV-1">
          <mxGeometry x="725" y="1560" width="80" height="80" as="geometry" />
        </mxCell>
        <mxCell id="z1cHuliVXPMH2H2w3VBW-75" value="" style="edgeStyle=orthogonalEdgeStyle;rounded=0;orthogonalLoop=1;jettySize=auto;html=1;" edge="1" parent="WIyWlLk6GJQsqaUBKTNV-1" source="z1cHuliVXPMH2H2w3VBW-76" target="z1cHuliVXPMH2H2w3VBW-81">
          <mxGeometry relative="1" as="geometry" />
        </mxCell>
        <mxCell id="z1cHuliVXPMH2H2w3VBW-76" value="j=0" style="rounded=0;whiteSpace=wrap;html=1;" vertex="1" parent="WIyWlLk6GJQsqaUBKTNV-1">
          <mxGeometry x="855" y="1570" width="120" height="60" as="geometry" />
        </mxCell>
        <mxCell id="z1cHuliVXPMH2H2w3VBW-77" value="" style="edgeStyle=orthogonalEdgeStyle;rounded=0;orthogonalLoop=1;jettySize=auto;html=1;" edge="1" parent="WIyWlLk6GJQsqaUBKTNV-1" source="z1cHuliVXPMH2H2w3VBW-81" target="z1cHuliVXPMH2H2w3VBW-83">
          <mxGeometry relative="1" as="geometry" />
        </mxCell>
        <mxCell id="z1cHuliVXPMH2H2w3VBW-78" value="true" style="edgeLabel;html=1;align=center;verticalAlign=middle;resizable=0;points=[];" vertex="1" connectable="0" parent="z1cHuliVXPMH2H2w3VBW-77">
          <mxGeometry x="-0.3043" y="1" relative="1" as="geometry">
            <mxPoint as="offset" />
          </mxGeometry>
        </mxCell>
        <mxCell id="z1cHuliVXPMH2H2w3VBW-79" style="edgeStyle=orthogonalEdgeStyle;rounded=0;orthogonalLoop=1;jettySize=auto;html=1;entryX=1;entryY=0.5;entryDx=0;entryDy=0;" edge="1" parent="WIyWlLk6GJQsqaUBKTNV-1" source="z1cHuliVXPMH2H2w3VBW-81" target="z1cHuliVXPMH2H2w3VBW-85">
          <mxGeometry relative="1" as="geometry">
            <mxPoint x="955" y="1490" as="targetPoint" />
            <Array as="points">
              <mxPoint x="1076" y="1480" />
            </Array>
          </mxGeometry>
        </mxCell>
        <mxCell id="z1cHuliVXPMH2H2w3VBW-80" value="false" style="edgeLabel;html=1;align=center;verticalAlign=middle;resizable=0;points=[];" vertex="1" connectable="0" parent="z1cHuliVXPMH2H2w3VBW-79">
          <mxGeometry x="-0.1934" y="4" relative="1" as="geometry">
            <mxPoint y="-1" as="offset" />
          </mxGeometry>
        </mxCell>
        <mxCell id="z1cHuliVXPMH2H2w3VBW-81" value="j&amp;lt;m" style="rhombus;whiteSpace=wrap;html=1;" vertex="1" parent="WIyWlLk6GJQsqaUBKTNV-1">
          <mxGeometry x="1036" y="1560" width="80" height="80" as="geometry" />
        </mxCell>
        <mxCell id="z1cHuliVXPMH2H2w3VBW-82" style="edgeStyle=orthogonalEdgeStyle;rounded=0;orthogonalLoop=1;jettySize=auto;html=1;" edge="1" parent="WIyWlLk6GJQsqaUBKTNV-1" source="z1cHuliVXPMH2H2w3VBW-83">
          <mxGeometry relative="1" as="geometry">
            <mxPoint x="995" y="1600" as="targetPoint" />
            <Array as="points">
              <mxPoint x="1235" y="1710" />
              <mxPoint x="995" y="1710" />
            </Array>
          </mxGeometry>
        </mxCell>
        <mxCell id="z1cHuliVXPMH2H2w3VBW-83" value="a[i][j]&lt;br&gt;j++" style="rounded=0;whiteSpace=wrap;html=1;shape=parallelogram;perimeter=parallelogramPerimeter;fixedSize=1;" vertex="1" parent="WIyWlLk6GJQsqaUBKTNV-1">
          <mxGeometry x="1175" y="1570" width="120" height="60" as="geometry" />
        </mxCell>
        <mxCell id="z1cHuliVXPMH2H2w3VBW-84" style="edgeStyle=orthogonalEdgeStyle;rounded=0;orthogonalLoop=1;jettySize=auto;html=1;" edge="1" parent="WIyWlLk6GJQsqaUBKTNV-1" source="z1cHuliVXPMH2H2w3VBW-85">
          <mxGeometry relative="1" as="geometry">
            <mxPoint x="715" y="1600" as="targetPoint" />
          </mxGeometry>
        </mxCell>
        <mxCell id="z1cHuliVXPMH2H2w3VBW-85" value="i++" style="rounded=0;whiteSpace=wrap;html=1;" vertex="1" parent="WIyWlLk6GJQsqaUBKTNV-1">
          <mxGeometry x="855" y="1450" width="120" height="60" as="geometry" />
        </mxCell>
        <mxCell id="z1cHuliVXPMH2H2w3VBW-86" value="" style="edgeStyle=orthogonalEdgeStyle;rounded=0;orthogonalLoop=1;jettySize=auto;html=1;" edge="1" parent="WIyWlLk6GJQsqaUBKTNV-1" source="z1cHuliVXPMH2H2w3VBW-90" target="z1cHuliVXPMH2H2w3VBW-92">
          <mxGeometry relative="1" as="geometry" />
        </mxCell>
        <mxCell id="z1cHuliVXPMH2H2w3VBW-87" value="true" style="edgeLabel;html=1;align=center;verticalAlign=middle;resizable=0;points=[];" vertex="1" connectable="0" parent="z1cHuliVXPMH2H2w3VBW-86">
          <mxGeometry x="-0.3714" y="2" relative="1" as="geometry">
            <mxPoint as="offset" />
          </mxGeometry>
        </mxCell>
        <mxCell id="z1cHuliVXPMH2H2w3VBW-88" style="edgeStyle=orthogonalEdgeStyle;rounded=0;orthogonalLoop=1;jettySize=auto;html=1;entryX=0.5;entryY=0;entryDx=0;entryDy=0;" edge="1" parent="WIyWlLk6GJQsqaUBKTNV-1" source="z1cHuliVXPMH2H2w3VBW-90" target="z1cHuliVXPMH2H2w3VBW-116">
          <mxGeometry relative="1" as="geometry" />
        </mxCell>
        <mxCell id="z1cHuliVXPMH2H2w3VBW-89" value="false" style="edgeLabel;html=1;align=center;verticalAlign=middle;resizable=0;points=[];" vertex="1" connectable="0" parent="z1cHuliVXPMH2H2w3VBW-88">
          <mxGeometry x="-0.084" y="4" relative="1" as="geometry">
            <mxPoint y="-1" as="offset" />
          </mxGeometry>
        </mxCell>
        <mxCell id="z1cHuliVXPMH2H2w3VBW-90" value="choice==3" style="rhombus;whiteSpace=wrap;html=1;" vertex="1" parent="WIyWlLk6GJQsqaUBKTNV-1">
          <mxGeometry x="450" y="1880" width="80" height="80" as="geometry" />
        </mxCell>
        <mxCell id="z1cHuliVXPMH2H2w3VBW-91" value="" style="edgeStyle=orthogonalEdgeStyle;rounded=0;orthogonalLoop=1;jettySize=auto;html=1;" edge="1" parent="WIyWlLk6GJQsqaUBKTNV-1" source="z1cHuliVXPMH2H2w3VBW-92" target="z1cHuliVXPMH2H2w3VBW-96">
          <mxGeometry relative="1" as="geometry" />
        </mxCell>
        <mxCell id="z1cHuliVXPMH2H2w3VBW-92" value="i=1" style="rounded=0;whiteSpace=wrap;html=1;" vertex="1" parent="WIyWlLk6GJQsqaUBKTNV-1">
          <mxGeometry x="590" y="1880" width="120" height="60" as="geometry" />
        </mxCell>
        <mxCell id="z1cHuliVXPMH2H2w3VBW-93" value="" style="edgeStyle=orthogonalEdgeStyle;rounded=0;orthogonalLoop=1;jettySize=auto;html=1;" edge="1" parent="WIyWlLk6GJQsqaUBKTNV-1" source="z1cHuliVXPMH2H2w3VBW-96" target="z1cHuliVXPMH2H2w3VBW-98">
          <mxGeometry relative="1" as="geometry" />
        </mxCell>
        <mxCell id="z1cHuliVXPMH2H2w3VBW-94" value="true" style="edgeLabel;html=1;align=center;verticalAlign=middle;resizable=0;points=[];" vertex="1" connectable="0" parent="z1cHuliVXPMH2H2w3VBW-93">
          <mxGeometry x="-0.3" relative="1" as="geometry">
            <mxPoint y="1" as="offset" />
          </mxGeometry>
        </mxCell>
        <mxCell id="z1cHuliVXPMH2H2w3VBW-95" style="edgeStyle=orthogonalEdgeStyle;rounded=0;orthogonalLoop=1;jettySize=auto;html=1;exitX=0.5;exitY=1;exitDx=0;exitDy=0;" edge="1" parent="WIyWlLk6GJQsqaUBKTNV-1" source="z1cHuliVXPMH2H2w3VBW-96">
          <mxGeometry relative="1" as="geometry">
            <mxPoint x="820" y="2170" as="sourcePoint" />
            <mxPoint x="360" y="1030" as="targetPoint" />
            <Array as="points">
              <mxPoint x="780" y="2170" />
              <mxPoint x="2110" y="2170" />
              <mxPoint x="2110" y="1020" />
              <mxPoint x="350" y="1020" />
            </Array>
          </mxGeometry>
        </mxCell>
        <mxCell id="z1cHuliVXPMH2H2w3VBW-96" value="i&amp;lt;n" style="rhombus;whiteSpace=wrap;html=1;" vertex="1" parent="WIyWlLk6GJQsqaUBKTNV-1">
          <mxGeometry x="740" y="1870" width="80" height="80" as="geometry" />
        </mxCell>
        <mxCell id="z1cHuliVXPMH2H2w3VBW-97" value="" style="edgeStyle=orthogonalEdgeStyle;rounded=0;orthogonalLoop=1;jettySize=auto;html=1;" edge="1" parent="WIyWlLk6GJQsqaUBKTNV-1" source="z1cHuliVXPMH2H2w3VBW-98" target="z1cHuliVXPMH2H2w3VBW-102">
          <mxGeometry relative="1" as="geometry" />
        </mxCell>
        <mxCell id="z1cHuliVXPMH2H2w3VBW-98" value="j=0" style="rounded=0;whiteSpace=wrap;html=1;" vertex="1" parent="WIyWlLk6GJQsqaUBKTNV-1">
          <mxGeometry x="870" y="1880" width="120" height="60" as="geometry" />
        </mxCell>
        <mxCell id="z1cHuliVXPMH2H2w3VBW-99" style="edgeStyle=orthogonalEdgeStyle;rounded=0;orthogonalLoop=1;jettySize=auto;html=1;entryX=1;entryY=0.5;entryDx=0;entryDy=0;" edge="1" parent="WIyWlLk6GJQsqaUBKTNV-1" source="z1cHuliVXPMH2H2w3VBW-102" target="z1cHuliVXPMH2H2w3VBW-106">
          <mxGeometry relative="1" as="geometry">
            <mxPoint x="970" y="1800" as="targetPoint" />
            <Array as="points">
              <mxPoint x="1091" y="1790" />
            </Array>
          </mxGeometry>
        </mxCell>
        <mxCell id="z1cHuliVXPMH2H2w3VBW-100" value="" style="edgeStyle=orthogonalEdgeStyle;rounded=0;orthogonalLoop=1;jettySize=auto;html=1;" edge="1" parent="WIyWlLk6GJQsqaUBKTNV-1" source="z1cHuliVXPMH2H2w3VBW-102" target="z1cHuliVXPMH2H2w3VBW-111">
          <mxGeometry relative="1" as="geometry" />
        </mxCell>
        <mxCell id="z1cHuliVXPMH2H2w3VBW-101" value="true" style="edgeLabel;html=1;align=center;verticalAlign=middle;resizable=0;points=[];" vertex="1" connectable="0" parent="z1cHuliVXPMH2H2w3VBW-100">
          <mxGeometry x="0.1392" y="-3" relative="1" as="geometry">
            <mxPoint x="1" as="offset" />
          </mxGeometry>
        </mxCell>
        <mxCell id="z1cHuliVXPMH2H2w3VBW-102" value="j&amp;lt;m" style="rhombus;whiteSpace=wrap;html=1;" vertex="1" parent="WIyWlLk6GJQsqaUBKTNV-1">
          <mxGeometry x="1051" y="1870" width="80" height="80" as="geometry" />
        </mxCell>
        <mxCell id="z1cHuliVXPMH2H2w3VBW-103" style="edgeStyle=orthogonalEdgeStyle;rounded=0;orthogonalLoop=1;jettySize=auto;html=1;" edge="1" parent="WIyWlLk6GJQsqaUBKTNV-1" source="z1cHuliVXPMH2H2w3VBW-104">
          <mxGeometry relative="1" as="geometry">
            <mxPoint x="1010" y="1910" as="targetPoint" />
            <Array as="points">
              <mxPoint x="1450" y="2020" />
              <mxPoint x="1010" y="2020" />
            </Array>
          </mxGeometry>
        </mxCell>
        <mxCell id="z1cHuliVXPMH2H2w3VBW-104" value="a[i][j]&lt;br&gt;j++" style="rounded=0;whiteSpace=wrap;html=1;" vertex="1" parent="WIyWlLk6GJQsqaUBKTNV-1">
          <mxGeometry x="1400" y="1880" width="120" height="60" as="geometry" />
        </mxCell>
        <mxCell id="z1cHuliVXPMH2H2w3VBW-105" style="edgeStyle=orthogonalEdgeStyle;rounded=0;orthogonalLoop=1;jettySize=auto;html=1;" edge="1" parent="WIyWlLk6GJQsqaUBKTNV-1" source="z1cHuliVXPMH2H2w3VBW-106">
          <mxGeometry relative="1" as="geometry">
            <mxPoint x="730" y="1910" as="targetPoint" />
          </mxGeometry>
        </mxCell>
        <mxCell id="z1cHuliVXPMH2H2w3VBW-106" value="i++" style="rounded=0;whiteSpace=wrap;html=1;" vertex="1" parent="WIyWlLk6GJQsqaUBKTNV-1">
          <mxGeometry x="860" y="1760" width="120" height="60" as="geometry" />
        </mxCell>
        <mxCell id="z1cHuliVXPMH2H2w3VBW-107" value="" style="edgeStyle=orthogonalEdgeStyle;rounded=0;orthogonalLoop=1;jettySize=auto;html=1;" edge="1" parent="WIyWlLk6GJQsqaUBKTNV-1" source="z1cHuliVXPMH2H2w3VBW-111" target="z1cHuliVXPMH2H2w3VBW-104">
          <mxGeometry relative="1" as="geometry" />
        </mxCell>
        <mxCell id="z1cHuliVXPMH2H2w3VBW-108" value="true" style="edgeLabel;html=1;align=center;verticalAlign=middle;resizable=0;points=[];" vertex="1" connectable="0" parent="z1cHuliVXPMH2H2w3VBW-107">
          <mxGeometry x="0.0909" y="1" relative="1" as="geometry">
            <mxPoint as="offset" />
          </mxGeometry>
        </mxCell>
        <mxCell id="z1cHuliVXPMH2H2w3VBW-109" value="" style="edgeStyle=orthogonalEdgeStyle;rounded=0;orthogonalLoop=1;jettySize=auto;html=1;" edge="1" parent="WIyWlLk6GJQsqaUBKTNV-1" source="z1cHuliVXPMH2H2w3VBW-111" target="z1cHuliVXPMH2H2w3VBW-113">
          <mxGeometry relative="1" as="geometry" />
        </mxCell>
        <mxCell id="z1cHuliVXPMH2H2w3VBW-110" value="false" style="edgeLabel;html=1;align=center;verticalAlign=middle;resizable=0;points=[];" vertex="1" connectable="0" parent="z1cHuliVXPMH2H2w3VBW-109">
          <mxGeometry x="0.15" y="4" relative="1" as="geometry">
            <mxPoint y="-1" as="offset" />
          </mxGeometry>
        </mxCell>
        <mxCell id="z1cHuliVXPMH2H2w3VBW-111" value="i==0&amp;amp;&amp;amp;j==0||i==n-1&amp;amp;&amp;amp;j==0||i==n-1&amp;amp;&amp;amp;j==m-1||i==0&amp;amp;&amp;amp;j==m-1" style="rhombus;whiteSpace=wrap;html=1;" vertex="1" parent="WIyWlLk6GJQsqaUBKTNV-1">
          <mxGeometry x="1190" y="1800" width="160" height="150" as="geometry" />
        </mxCell>
        <mxCell id="z1cHuliVXPMH2H2w3VBW-112" style="edgeStyle=orthogonalEdgeStyle;rounded=0;orthogonalLoop=1;jettySize=auto;html=1;" edge="1" parent="WIyWlLk6GJQsqaUBKTNV-1" source="z1cHuliVXPMH2H2w3VBW-113">
          <mxGeometry relative="1" as="geometry">
            <mxPoint x="1010" y="1920" as="targetPoint" />
          </mxGeometry>
        </mxCell>
        <mxCell id="z1cHuliVXPMH2H2w3VBW-113" value="f=0&lt;br&gt;j++" style="rounded=0;whiteSpace=wrap;html=1;" vertex="1" parent="WIyWlLk6GJQsqaUBKTNV-1">
          <mxGeometry x="1190" y="2050" width="120" height="60" as="geometry" />
        </mxCell>
        <mxCell id="z1cHuliVXPMH2H2w3VBW-114" style="edgeStyle=orthogonalEdgeStyle;rounded=0;orthogonalLoop=1;jettySize=auto;html=1;entryX=0.5;entryY=0;entryDx=0;entryDy=0;" edge="1" parent="WIyWlLk6GJQsqaUBKTNV-1" source="z1cHuliVXPMH2H2w3VBW-116" target="z1cHuliVXPMH2H2w3VBW-146">
          <mxGeometry relative="1" as="geometry" />
        </mxCell>
        <mxCell id="z1cHuliVXPMH2H2w3VBW-115" value="false" style="edgeLabel;html=1;align=center;verticalAlign=middle;resizable=0;points=[];" vertex="1" connectable="0" parent="z1cHuliVXPMH2H2w3VBW-114">
          <mxGeometry x="-0.0727" y="-6" relative="1" as="geometry">
            <mxPoint y="-1" as="offset" />
          </mxGeometry>
        </mxCell>
        <mxCell id="z1cHuliVXPMH2H2w3VBW-116" value="choice==4" style="rhombus;whiteSpace=wrap;html=1;" vertex="1" parent="WIyWlLk6GJQsqaUBKTNV-1">
          <mxGeometry x="450" y="2460" width="80" height="80" as="geometry" />
        </mxCell>
        <mxCell id="z1cHuliVXPMH2H2w3VBW-117" value="" style="edgeStyle=orthogonalEdgeStyle;rounded=0;orthogonalLoop=1;jettySize=auto;html=1;exitX=1;exitY=0.5;exitDx=0;exitDy=0;" edge="1" parent="WIyWlLk6GJQsqaUBKTNV-1" source="z1cHuliVXPMH2H2w3VBW-116" target="z1cHuliVXPMH2H2w3VBW-120">
          <mxGeometry relative="1" as="geometry">
            <mxPoint x="590" y="2480" as="sourcePoint" />
          </mxGeometry>
        </mxCell>
        <mxCell id="z1cHuliVXPMH2H2w3VBW-118" value="true" style="edgeLabel;html=1;align=center;verticalAlign=middle;resizable=0;points=[];" vertex="1" connectable="0" parent="z1cHuliVXPMH2H2w3VBW-117">
          <mxGeometry x="-0.3714" y="2" relative="1" as="geometry">
            <mxPoint as="offset" />
          </mxGeometry>
        </mxCell>
        <mxCell id="z1cHuliVXPMH2H2w3VBW-119" value="" style="edgeStyle=orthogonalEdgeStyle;rounded=0;orthogonalLoop=1;jettySize=auto;html=1;" edge="1" parent="WIyWlLk6GJQsqaUBKTNV-1" source="z1cHuliVXPMH2H2w3VBW-120" target="z1cHuliVXPMH2H2w3VBW-124">
          <mxGeometry relative="1" as="geometry" />
        </mxCell>
        <mxCell id="z1cHuliVXPMH2H2w3VBW-120" value="i=1" style="rounded=0;whiteSpace=wrap;html=1;" vertex="1" parent="WIyWlLk6GJQsqaUBKTNV-1">
          <mxGeometry x="650" y="2470" width="120" height="60" as="geometry" />
        </mxCell>
        <mxCell id="z1cHuliVXPMH2H2w3VBW-121" value="" style="edgeStyle=orthogonalEdgeStyle;rounded=0;orthogonalLoop=1;jettySize=auto;html=1;" edge="1" parent="WIyWlLk6GJQsqaUBKTNV-1" source="z1cHuliVXPMH2H2w3VBW-124" target="z1cHuliVXPMH2H2w3VBW-126">
          <mxGeometry relative="1" as="geometry" />
        </mxCell>
        <mxCell id="z1cHuliVXPMH2H2w3VBW-122" value="true" style="edgeLabel;html=1;align=center;verticalAlign=middle;resizable=0;points=[];" vertex="1" connectable="0" parent="z1cHuliVXPMH2H2w3VBW-121">
          <mxGeometry x="-0.3" relative="1" as="geometry">
            <mxPoint y="1" as="offset" />
          </mxGeometry>
        </mxCell>
        <mxCell id="z1cHuliVXPMH2H2w3VBW-123" style="edgeStyle=orthogonalEdgeStyle;rounded=0;orthogonalLoop=1;jettySize=auto;html=1;entryX=1;entryY=0.5;entryDx=0;entryDy=0;exitX=0.5;exitY=1;exitDx=0;exitDy=0;" edge="1" parent="WIyWlLk6GJQsqaUBKTNV-1" source="z1cHuliVXPMH2H2w3VBW-124" target="z1cHuliVXPMH2H2w3VBW-38">
          <mxGeometry relative="1" as="geometry">
            <mxPoint x="870" y="2740" as="sourcePoint" />
            <mxPoint x="340" y="1290" as="targetPoint" />
            <Array as="points">
              <mxPoint x="840" y="2740" />
              <mxPoint x="2110" y="2740" />
              <mxPoint x="2110" y="1020" />
            </Array>
          </mxGeometry>
        </mxCell>
        <mxCell id="z1cHuliVXPMH2H2w3VBW-124" value="i&amp;lt;n" style="rhombus;whiteSpace=wrap;html=1;" vertex="1" parent="WIyWlLk6GJQsqaUBKTNV-1">
          <mxGeometry x="800" y="2430" width="80" height="80" as="geometry" />
        </mxCell>
        <mxCell id="z1cHuliVXPMH2H2w3VBW-125" value="" style="edgeStyle=orthogonalEdgeStyle;rounded=0;orthogonalLoop=1;jettySize=auto;html=1;" edge="1" parent="WIyWlLk6GJQsqaUBKTNV-1" source="z1cHuliVXPMH2H2w3VBW-126" target="z1cHuliVXPMH2H2w3VBW-130">
          <mxGeometry relative="1" as="geometry" />
        </mxCell>
        <mxCell id="z1cHuliVXPMH2H2w3VBW-126" value="j=0" style="rounded=0;whiteSpace=wrap;html=1;" vertex="1" parent="WIyWlLk6GJQsqaUBKTNV-1">
          <mxGeometry x="930" y="2440" width="120" height="60" as="geometry" />
        </mxCell>
        <mxCell id="z1cHuliVXPMH2H2w3VBW-127" style="edgeStyle=orthogonalEdgeStyle;rounded=0;orthogonalLoop=1;jettySize=auto;html=1;entryX=1;entryY=0.5;entryDx=0;entryDy=0;" edge="1" parent="WIyWlLk6GJQsqaUBKTNV-1" source="z1cHuliVXPMH2H2w3VBW-130">
          <mxGeometry relative="1" as="geometry">
            <mxPoint x="1050" y="2350" as="targetPoint" />
            <Array as="points">
              <mxPoint x="1151" y="2350" />
            </Array>
          </mxGeometry>
        </mxCell>
        <mxCell id="z1cHuliVXPMH2H2w3VBW-128" value="" style="edgeStyle=orthogonalEdgeStyle;rounded=0;orthogonalLoop=1;jettySize=auto;html=1;" edge="1" parent="WIyWlLk6GJQsqaUBKTNV-1" source="z1cHuliVXPMH2H2w3VBW-130" target="z1cHuliVXPMH2H2w3VBW-138">
          <mxGeometry relative="1" as="geometry" />
        </mxCell>
        <mxCell id="z1cHuliVXPMH2H2w3VBW-129" value="true" style="edgeLabel;html=1;align=center;verticalAlign=middle;resizable=0;points=[];" vertex="1" connectable="0" parent="z1cHuliVXPMH2H2w3VBW-128">
          <mxGeometry x="0.1392" y="-3" relative="1" as="geometry">
            <mxPoint x="1" as="offset" />
          </mxGeometry>
        </mxCell>
        <mxCell id="z1cHuliVXPMH2H2w3VBW-130" value="j&amp;lt;m" style="rhombus;whiteSpace=wrap;html=1;" vertex="1" parent="WIyWlLk6GJQsqaUBKTNV-1">
          <mxGeometry x="1111" y="2430" width="80" height="80" as="geometry" />
        </mxCell>
        <mxCell id="z1cHuliVXPMH2H2w3VBW-131" style="edgeStyle=orthogonalEdgeStyle;rounded=0;orthogonalLoop=1;jettySize=auto;html=1;" edge="1" parent="WIyWlLk6GJQsqaUBKTNV-1" source="z1cHuliVXPMH2H2w3VBW-132">
          <mxGeometry relative="1" as="geometry">
            <mxPoint x="1070" y="2470" as="targetPoint" />
            <Array as="points">
              <mxPoint x="1510" y="2580" />
              <mxPoint x="1070" y="2580" />
            </Array>
          </mxGeometry>
        </mxCell>
        <mxCell id="z1cHuliVXPMH2H2w3VBW-132" value="a[i][j]&lt;br&gt;j++" style="rounded=0;whiteSpace=wrap;html=1;" vertex="1" parent="WIyWlLk6GJQsqaUBKTNV-1">
          <mxGeometry x="1460" y="2440" width="120" height="60" as="geometry" />
        </mxCell>
        <mxCell id="z1cHuliVXPMH2H2w3VBW-133" style="edgeStyle=orthogonalEdgeStyle;rounded=0;orthogonalLoop=1;jettySize=auto;html=1;" edge="1" parent="WIyWlLk6GJQsqaUBKTNV-1">
          <mxGeometry relative="1" as="geometry">
            <mxPoint x="790" y="2470" as="targetPoint" />
            <mxPoint x="930" y="2350" as="sourcePoint" />
          </mxGeometry>
        </mxCell>
        <mxCell id="z1cHuliVXPMH2H2w3VBW-134" value="" style="edgeStyle=orthogonalEdgeStyle;rounded=0;orthogonalLoop=1;jettySize=auto;html=1;" edge="1" parent="WIyWlLk6GJQsqaUBKTNV-1" source="z1cHuliVXPMH2H2w3VBW-138" target="z1cHuliVXPMH2H2w3VBW-132">
          <mxGeometry relative="1" as="geometry" />
        </mxCell>
        <mxCell id="z1cHuliVXPMH2H2w3VBW-135" value="true" style="edgeLabel;html=1;align=center;verticalAlign=middle;resizable=0;points=[];" vertex="1" connectable="0" parent="z1cHuliVXPMH2H2w3VBW-134">
          <mxGeometry x="0.0909" y="1" relative="1" as="geometry">
            <mxPoint as="offset" />
          </mxGeometry>
        </mxCell>
        <mxCell id="z1cHuliVXPMH2H2w3VBW-136" value="" style="edgeStyle=orthogonalEdgeStyle;rounded=0;orthogonalLoop=1;jettySize=auto;html=1;" edge="1" parent="WIyWlLk6GJQsqaUBKTNV-1" source="z1cHuliVXPMH2H2w3VBW-138" target="z1cHuliVXPMH2H2w3VBW-140">
          <mxGeometry relative="1" as="geometry" />
        </mxCell>
        <mxCell id="z1cHuliVXPMH2H2w3VBW-137" value="false" style="edgeLabel;html=1;align=center;verticalAlign=middle;resizable=0;points=[];" vertex="1" connectable="0" parent="z1cHuliVXPMH2H2w3VBW-136">
          <mxGeometry x="0.15" y="4" relative="1" as="geometry">
            <mxPoint y="-1" as="offset" />
          </mxGeometry>
        </mxCell>
        <mxCell id="z1cHuliVXPMH2H2w3VBW-138" value="j==0||i==0||i==n-1||j==m-1" style="rhombus;whiteSpace=wrap;html=1;" vertex="1" parent="WIyWlLk6GJQsqaUBKTNV-1">
          <mxGeometry x="1250" y="2360" width="160" height="150" as="geometry" />
        </mxCell>
        <mxCell id="z1cHuliVXPMH2H2w3VBW-139" style="edgeStyle=orthogonalEdgeStyle;rounded=0;orthogonalLoop=1;jettySize=auto;html=1;" edge="1" parent="WIyWlLk6GJQsqaUBKTNV-1" source="z1cHuliVXPMH2H2w3VBW-140">
          <mxGeometry relative="1" as="geometry">
            <mxPoint x="1070" y="2480" as="targetPoint" />
          </mxGeometry>
        </mxCell>
        <mxCell id="z1cHuliVXPMH2H2w3VBW-140" value="f=0&lt;br&gt;j++" style="rounded=0;whiteSpace=wrap;html=1;" vertex="1" parent="WIyWlLk6GJQsqaUBKTNV-1">
          <mxGeometry x="1250" y="2610" width="120" height="60" as="geometry" />
        </mxCell>
        <mxCell id="z1cHuliVXPMH2H2w3VBW-141" value="i++" style="rounded=0;whiteSpace=wrap;html=1;" vertex="1" parent="WIyWlLk6GJQsqaUBKTNV-1">
          <mxGeometry x="930" y="2320" width="120" height="60" as="geometry" />
        </mxCell>
        <mxCell id="z1cHuliVXPMH2H2w3VBW-142" style="edgeStyle=orthogonalEdgeStyle;rounded=0;orthogonalLoop=1;jettySize=auto;html=1;entryX=0;entryY=0.75;entryDx=0;entryDy=0;" edge="1" parent="WIyWlLk6GJQsqaUBKTNV-1" source="z1cHuliVXPMH2H2w3VBW-146" target="z1cHuliVXPMH2H2w3VBW-148">
          <mxGeometry relative="1" as="geometry" />
        </mxCell>
        <mxCell id="z1cHuliVXPMH2H2w3VBW-143" value="true" style="edgeLabel;html=1;align=center;verticalAlign=middle;resizable=0;points=[];" vertex="1" connectable="0" parent="z1cHuliVXPMH2H2w3VBW-142">
          <mxGeometry x="-0.0211" y="-5" relative="1" as="geometry">
            <mxPoint as="offset" />
          </mxGeometry>
        </mxCell>
        <mxCell id="z1cHuliVXPMH2H2w3VBW-144" style="edgeStyle=orthogonalEdgeStyle;rounded=0;orthogonalLoop=1;jettySize=auto;html=1;" edge="1" parent="WIyWlLk6GJQsqaUBKTNV-1" source="z1cHuliVXPMH2H2w3VBW-146" target="z1cHuliVXPMH2H2w3VBW-174">
          <mxGeometry relative="1" as="geometry" />
        </mxCell>
        <mxCell id="z1cHuliVXPMH2H2w3VBW-145" value="false" style="edgeLabel;html=1;align=center;verticalAlign=middle;resizable=0;points=[];" vertex="1" connectable="0" parent="z1cHuliVXPMH2H2w3VBW-144">
          <mxGeometry x="-0.1429" y="-4" relative="1" as="geometry">
            <mxPoint as="offset" />
          </mxGeometry>
        </mxCell>
        <mxCell id="z1cHuliVXPMH2H2w3VBW-146" value="choice==5" style="rhombus;whiteSpace=wrap;html=1;" vertex="1" parent="WIyWlLk6GJQsqaUBKTNV-1">
          <mxGeometry x="450" y="2870" width="80" height="80" as="geometry" />
        </mxCell>
        <mxCell id="z1cHuliVXPMH2H2w3VBW-147" value="" style="edgeStyle=orthogonalEdgeStyle;rounded=0;orthogonalLoop=1;jettySize=auto;html=1;" edge="1" parent="WIyWlLk6GJQsqaUBKTNV-1" source="z1cHuliVXPMH2H2w3VBW-148" target="z1cHuliVXPMH2H2w3VBW-152">
          <mxGeometry relative="1" as="geometry" />
        </mxCell>
        <mxCell id="z1cHuliVXPMH2H2w3VBW-148" value="i=1" style="rounded=0;whiteSpace=wrap;html=1;" vertex="1" parent="WIyWlLk6GJQsqaUBKTNV-1">
          <mxGeometry x="611" y="2897.5" width="120" height="60" as="geometry" />
        </mxCell>
        <mxCell id="z1cHuliVXPMH2H2w3VBW-149" value="" style="edgeStyle=orthogonalEdgeStyle;rounded=0;orthogonalLoop=1;jettySize=auto;html=1;" edge="1" parent="WIyWlLk6GJQsqaUBKTNV-1" source="z1cHuliVXPMH2H2w3VBW-152" target="z1cHuliVXPMH2H2w3VBW-154">
          <mxGeometry relative="1" as="geometry" />
        </mxCell>
        <mxCell id="z1cHuliVXPMH2H2w3VBW-150" value="true" style="edgeLabel;html=1;align=center;verticalAlign=middle;resizable=0;points=[];" vertex="1" connectable="0" parent="z1cHuliVXPMH2H2w3VBW-149">
          <mxGeometry x="-0.3" relative="1" as="geometry">
            <mxPoint y="1" as="offset" />
          </mxGeometry>
        </mxCell>
        <mxCell id="z1cHuliVXPMH2H2w3VBW-151" style="edgeStyle=orthogonalEdgeStyle;rounded=0;orthogonalLoop=1;jettySize=auto;html=1;entryX=1;entryY=0.5;entryDx=0;entryDy=0;exitX=0.5;exitY=1;exitDx=0;exitDy=0;" edge="1" parent="WIyWlLk6GJQsqaUBKTNV-1" source="z1cHuliVXPMH2H2w3VBW-152">
          <mxGeometry relative="1" as="geometry">
            <mxPoint x="805" y="3157.5" as="sourcePoint" />
            <mxPoint x="2114" y="1420" as="targetPoint" />
          </mxGeometry>
        </mxCell>
        <mxCell id="z1cHuliVXPMH2H2w3VBW-152" value="i&amp;lt;n" style="rhombus;whiteSpace=wrap;html=1;" vertex="1" parent="WIyWlLk6GJQsqaUBKTNV-1">
          <mxGeometry x="761" y="2857.5" width="80" height="80" as="geometry" />
        </mxCell>
        <mxCell id="z1cHuliVXPMH2H2w3VBW-153" value="" style="edgeStyle=orthogonalEdgeStyle;rounded=0;orthogonalLoop=1;jettySize=auto;html=1;" edge="1" parent="WIyWlLk6GJQsqaUBKTNV-1" source="z1cHuliVXPMH2H2w3VBW-154" target="z1cHuliVXPMH2H2w3VBW-158">
          <mxGeometry relative="1" as="geometry" />
        </mxCell>
        <mxCell id="z1cHuliVXPMH2H2w3VBW-154" value="j=0" style="rounded=0;whiteSpace=wrap;html=1;" vertex="1" parent="WIyWlLk6GJQsqaUBKTNV-1">
          <mxGeometry x="891" y="2867.5" width="120" height="60" as="geometry" />
        </mxCell>
        <mxCell id="z1cHuliVXPMH2H2w3VBW-155" style="edgeStyle=orthogonalEdgeStyle;rounded=0;orthogonalLoop=1;jettySize=auto;html=1;entryX=1;entryY=0.5;entryDx=0;entryDy=0;" edge="1" parent="WIyWlLk6GJQsqaUBKTNV-1" source="z1cHuliVXPMH2H2w3VBW-158">
          <mxGeometry relative="1" as="geometry">
            <mxPoint x="1011" y="2777.5" as="targetPoint" />
            <Array as="points">
              <mxPoint x="1112" y="2777.5" />
            </Array>
          </mxGeometry>
        </mxCell>
        <mxCell id="z1cHuliVXPMH2H2w3VBW-156" value="" style="edgeStyle=orthogonalEdgeStyle;rounded=0;orthogonalLoop=1;jettySize=auto;html=1;" edge="1" parent="WIyWlLk6GJQsqaUBKTNV-1" source="z1cHuliVXPMH2H2w3VBW-158" target="z1cHuliVXPMH2H2w3VBW-166">
          <mxGeometry relative="1" as="geometry" />
        </mxCell>
        <mxCell id="z1cHuliVXPMH2H2w3VBW-157" value="true" style="edgeLabel;html=1;align=center;verticalAlign=middle;resizable=0;points=[];" vertex="1" connectable="0" parent="z1cHuliVXPMH2H2w3VBW-156">
          <mxGeometry x="0.1392" y="-3" relative="1" as="geometry">
            <mxPoint x="1" as="offset" />
          </mxGeometry>
        </mxCell>
        <mxCell id="z1cHuliVXPMH2H2w3VBW-158" value="j&amp;lt;m" style="rhombus;whiteSpace=wrap;html=1;" vertex="1" parent="WIyWlLk6GJQsqaUBKTNV-1">
          <mxGeometry x="1072" y="2857.5" width="80" height="80" as="geometry" />
        </mxCell>
        <mxCell id="z1cHuliVXPMH2H2w3VBW-159" style="edgeStyle=orthogonalEdgeStyle;rounded=0;orthogonalLoop=1;jettySize=auto;html=1;" edge="1" parent="WIyWlLk6GJQsqaUBKTNV-1" source="z1cHuliVXPMH2H2w3VBW-160">
          <mxGeometry relative="1" as="geometry">
            <mxPoint x="1031" y="2897.5" as="targetPoint" />
            <Array as="points">
              <mxPoint x="1471" y="3007.5" />
              <mxPoint x="1031" y="3007.5" />
            </Array>
          </mxGeometry>
        </mxCell>
        <mxCell id="z1cHuliVXPMH2H2w3VBW-160" value="a[i][j]&lt;br&gt;j++" style="rounded=0;whiteSpace=wrap;html=1;" vertex="1" parent="WIyWlLk6GJQsqaUBKTNV-1">
          <mxGeometry x="1421" y="2867.5" width="120" height="60" as="geometry" />
        </mxCell>
        <mxCell id="z1cHuliVXPMH2H2w3VBW-161" style="edgeStyle=orthogonalEdgeStyle;rounded=0;orthogonalLoop=1;jettySize=auto;html=1;" edge="1" parent="WIyWlLk6GJQsqaUBKTNV-1">
          <mxGeometry relative="1" as="geometry">
            <mxPoint x="751" y="2897.5" as="targetPoint" />
            <mxPoint x="891" y="2777.5" as="sourcePoint" />
          </mxGeometry>
        </mxCell>
        <mxCell id="z1cHuliVXPMH2H2w3VBW-162" value="" style="edgeStyle=orthogonalEdgeStyle;rounded=0;orthogonalLoop=1;jettySize=auto;html=1;" edge="1" parent="WIyWlLk6GJQsqaUBKTNV-1" source="z1cHuliVXPMH2H2w3VBW-166" target="z1cHuliVXPMH2H2w3VBW-160">
          <mxGeometry relative="1" as="geometry" />
        </mxCell>
        <mxCell id="z1cHuliVXPMH2H2w3VBW-163" value="true" style="edgeLabel;html=1;align=center;verticalAlign=middle;resizable=0;points=[];" vertex="1" connectable="0" parent="z1cHuliVXPMH2H2w3VBW-162">
          <mxGeometry x="0.0909" y="1" relative="1" as="geometry">
            <mxPoint as="offset" />
          </mxGeometry>
        </mxCell>
        <mxCell id="z1cHuliVXPMH2H2w3VBW-164" value="" style="edgeStyle=orthogonalEdgeStyle;rounded=0;orthogonalLoop=1;jettySize=auto;html=1;" edge="1" parent="WIyWlLk6GJQsqaUBKTNV-1" source="z1cHuliVXPMH2H2w3VBW-166" target="z1cHuliVXPMH2H2w3VBW-168">
          <mxGeometry relative="1" as="geometry" />
        </mxCell>
        <mxCell id="z1cHuliVXPMH2H2w3VBW-165" value="false" style="edgeLabel;html=1;align=center;verticalAlign=middle;resizable=0;points=[];" vertex="1" connectable="0" parent="z1cHuliVXPMH2H2w3VBW-164">
          <mxGeometry x="0.15" y="4" relative="1" as="geometry">
            <mxPoint y="-1" as="offset" />
          </mxGeometry>
        </mxCell>
        <mxCell id="z1cHuliVXPMH2H2w3VBW-166" value="i==j" style="rhombus;whiteSpace=wrap;html=1;" vertex="1" parent="WIyWlLk6GJQsqaUBKTNV-1">
          <mxGeometry x="1211" y="2787.5" width="160" height="150" as="geometry" />
        </mxCell>
        <mxCell id="z1cHuliVXPMH2H2w3VBW-167" style="edgeStyle=orthogonalEdgeStyle;rounded=0;orthogonalLoop=1;jettySize=auto;html=1;" edge="1" parent="WIyWlLk6GJQsqaUBKTNV-1" source="z1cHuliVXPMH2H2w3VBW-168">
          <mxGeometry relative="1" as="geometry">
            <mxPoint x="1031" y="2907.5" as="targetPoint" />
          </mxGeometry>
        </mxCell>
        <mxCell id="z1cHuliVXPMH2H2w3VBW-168" value="f=0&lt;br&gt;j++" style="rounded=0;whiteSpace=wrap;html=1;" vertex="1" parent="WIyWlLk6GJQsqaUBKTNV-1">
          <mxGeometry x="1211" y="3037.5" width="120" height="60" as="geometry" />
        </mxCell>
        <mxCell id="z1cHuliVXPMH2H2w3VBW-169" value="i++" style="rounded=0;whiteSpace=wrap;html=1;" vertex="1" parent="WIyWlLk6GJQsqaUBKTNV-1">
          <mxGeometry x="891" y="2747.5" width="120" height="60" as="geometry" />
        </mxCell>
        <mxCell id="z1cHuliVXPMH2H2w3VBW-170" style="edgeStyle=orthogonalEdgeStyle;rounded=0;orthogonalLoop=1;jettySize=auto;html=1;" edge="1" parent="WIyWlLk6GJQsqaUBKTNV-1" source="z1cHuliVXPMH2H2w3VBW-174" target="z1cHuliVXPMH2H2w3VBW-176">
          <mxGeometry relative="1" as="geometry" />
        </mxCell>
        <mxCell id="z1cHuliVXPMH2H2w3VBW-171" value="true" style="edgeLabel;html=1;align=center;verticalAlign=middle;resizable=0;points=[];" vertex="1" connectable="0" parent="z1cHuliVXPMH2H2w3VBW-170">
          <mxGeometry x="0.1167" y="-2" relative="1" as="geometry">
            <mxPoint y="1" as="offset" />
          </mxGeometry>
        </mxCell>
        <mxCell id="z1cHuliVXPMH2H2w3VBW-172" style="edgeStyle=orthogonalEdgeStyle;rounded=0;orthogonalLoop=1;jettySize=auto;html=1;entryX=0.5;entryY=0;entryDx=0;entryDy=0;" edge="1" parent="WIyWlLk6GJQsqaUBKTNV-1" source="z1cHuliVXPMH2H2w3VBW-174" target="z1cHuliVXPMH2H2w3VBW-201">
          <mxGeometry relative="1" as="geometry" />
        </mxCell>
        <mxCell id="z1cHuliVXPMH2H2w3VBW-173" value="false" style="edgeLabel;html=1;align=center;verticalAlign=middle;resizable=0;points=[];" vertex="1" connectable="0" parent="z1cHuliVXPMH2H2w3VBW-172">
          <mxGeometry x="-0.235" y="7" relative="1" as="geometry">
            <mxPoint y="-1" as="offset" />
          </mxGeometry>
        </mxCell>
        <mxCell id="z1cHuliVXPMH2H2w3VBW-174" value="choice==6" style="rhombus;whiteSpace=wrap;html=1;" vertex="1" parent="WIyWlLk6GJQsqaUBKTNV-1">
          <mxGeometry x="460" y="3360" width="80" height="80" as="geometry" />
        </mxCell>
        <mxCell id="z1cHuliVXPMH2H2w3VBW-175" value="" style="edgeStyle=orthogonalEdgeStyle;rounded=0;orthogonalLoop=1;jettySize=auto;html=1;" edge="1" parent="WIyWlLk6GJQsqaUBKTNV-1" source="z1cHuliVXPMH2H2w3VBW-176" target="z1cHuliVXPMH2H2w3VBW-180">
          <mxGeometry relative="1" as="geometry" />
        </mxCell>
        <mxCell id="z1cHuliVXPMH2H2w3VBW-176" value="i=1" style="rounded=0;whiteSpace=wrap;html=1;" vertex="1" parent="WIyWlLk6GJQsqaUBKTNV-1">
          <mxGeometry x="640" y="3350" width="120" height="60" as="geometry" />
        </mxCell>
        <mxCell id="z1cHuliVXPMH2H2w3VBW-177" value="" style="edgeStyle=orthogonalEdgeStyle;rounded=0;orthogonalLoop=1;jettySize=auto;html=1;" edge="1" parent="WIyWlLk6GJQsqaUBKTNV-1" source="z1cHuliVXPMH2H2w3VBW-180" target="z1cHuliVXPMH2H2w3VBW-182">
          <mxGeometry relative="1" as="geometry" />
        </mxCell>
        <mxCell id="z1cHuliVXPMH2H2w3VBW-178" value="true" style="edgeLabel;html=1;align=center;verticalAlign=middle;resizable=0;points=[];" vertex="1" connectable="0" parent="z1cHuliVXPMH2H2w3VBW-177">
          <mxGeometry x="-0.3" relative="1" as="geometry">
            <mxPoint y="1" as="offset" />
          </mxGeometry>
        </mxCell>
        <mxCell id="z1cHuliVXPMH2H2w3VBW-179" style="edgeStyle=orthogonalEdgeStyle;rounded=0;orthogonalLoop=1;jettySize=auto;html=1;entryX=1;entryY=0.25;entryDx=0;entryDy=0;" edge="1" parent="WIyWlLk6GJQsqaUBKTNV-1" source="z1cHuliVXPMH2H2w3VBW-180">
          <mxGeometry relative="1" as="geometry">
            <mxPoint x="878.45" y="3606.82" as="sourcePoint" />
            <mxPoint x="362.9954545454545" y="1263.1836363636364" as="targetPoint" />
            <Array as="points">
              <mxPoint x="830" y="3607" />
              <mxPoint x="2118" y="3607" />
              <mxPoint x="2118" y="1263" />
            </Array>
          </mxGeometry>
        </mxCell>
        <mxCell id="z1cHuliVXPMH2H2w3VBW-180" value="i&amp;lt;n" style="rhombus;whiteSpace=wrap;html=1;" vertex="1" parent="WIyWlLk6GJQsqaUBKTNV-1">
          <mxGeometry x="790" y="3310" width="80" height="80" as="geometry" />
        </mxCell>
        <mxCell id="z1cHuliVXPMH2H2w3VBW-181" value="" style="edgeStyle=orthogonalEdgeStyle;rounded=0;orthogonalLoop=1;jettySize=auto;html=1;" edge="1" parent="WIyWlLk6GJQsqaUBKTNV-1" source="z1cHuliVXPMH2H2w3VBW-182" target="z1cHuliVXPMH2H2w3VBW-186">
          <mxGeometry relative="1" as="geometry" />
        </mxCell>
        <mxCell id="z1cHuliVXPMH2H2w3VBW-182" value="j=0" style="rounded=0;whiteSpace=wrap;html=1;" vertex="1" parent="WIyWlLk6GJQsqaUBKTNV-1">
          <mxGeometry x="920" y="3320" width="120" height="60" as="geometry" />
        </mxCell>
        <mxCell id="z1cHuliVXPMH2H2w3VBW-183" style="edgeStyle=orthogonalEdgeStyle;rounded=0;orthogonalLoop=1;jettySize=auto;html=1;entryX=1;entryY=0.5;entryDx=0;entryDy=0;" edge="1" parent="WIyWlLk6GJQsqaUBKTNV-1" source="z1cHuliVXPMH2H2w3VBW-186">
          <mxGeometry relative="1" as="geometry">
            <mxPoint x="1040" y="3230" as="targetPoint" />
            <Array as="points">
              <mxPoint x="1141" y="3230" />
            </Array>
          </mxGeometry>
        </mxCell>
        <mxCell id="z1cHuliVXPMH2H2w3VBW-184" value="" style="edgeStyle=orthogonalEdgeStyle;rounded=0;orthogonalLoop=1;jettySize=auto;html=1;" edge="1" parent="WIyWlLk6GJQsqaUBKTNV-1" source="z1cHuliVXPMH2H2w3VBW-186" target="z1cHuliVXPMH2H2w3VBW-194">
          <mxGeometry relative="1" as="geometry" />
        </mxCell>
        <mxCell id="z1cHuliVXPMH2H2w3VBW-185" value="true" style="edgeLabel;html=1;align=center;verticalAlign=middle;resizable=0;points=[];" vertex="1" connectable="0" parent="z1cHuliVXPMH2H2w3VBW-184">
          <mxGeometry x="0.1392" y="-3" relative="1" as="geometry">
            <mxPoint x="1" as="offset" />
          </mxGeometry>
        </mxCell>
        <mxCell id="z1cHuliVXPMH2H2w3VBW-186" value="j&amp;lt;m" style="rhombus;whiteSpace=wrap;html=1;" vertex="1" parent="WIyWlLk6GJQsqaUBKTNV-1">
          <mxGeometry x="1101" y="3310" width="80" height="80" as="geometry" />
        </mxCell>
        <mxCell id="z1cHuliVXPMH2H2w3VBW-187" style="edgeStyle=orthogonalEdgeStyle;rounded=0;orthogonalLoop=1;jettySize=auto;html=1;" edge="1" parent="WIyWlLk6GJQsqaUBKTNV-1" source="z1cHuliVXPMH2H2w3VBW-188">
          <mxGeometry relative="1" as="geometry">
            <mxPoint x="1060" y="3350" as="targetPoint" />
            <Array as="points">
              <mxPoint x="1500" y="3460" />
              <mxPoint x="1060" y="3460" />
            </Array>
          </mxGeometry>
        </mxCell>
        <mxCell id="z1cHuliVXPMH2H2w3VBW-188" value="a[i][j]&lt;br&gt;j++" style="rounded=0;whiteSpace=wrap;html=1;" vertex="1" parent="WIyWlLk6GJQsqaUBKTNV-1">
          <mxGeometry x="1450" y="3320" width="120" height="60" as="geometry" />
        </mxCell>
        <mxCell id="z1cHuliVXPMH2H2w3VBW-189" style="edgeStyle=orthogonalEdgeStyle;rounded=0;orthogonalLoop=1;jettySize=auto;html=1;" edge="1" parent="WIyWlLk6GJQsqaUBKTNV-1">
          <mxGeometry relative="1" as="geometry">
            <mxPoint x="780" y="3350" as="targetPoint" />
            <mxPoint x="920" y="3230" as="sourcePoint" />
          </mxGeometry>
        </mxCell>
        <mxCell id="z1cHuliVXPMH2H2w3VBW-190" value="" style="edgeStyle=orthogonalEdgeStyle;rounded=0;orthogonalLoop=1;jettySize=auto;html=1;" edge="1" parent="WIyWlLk6GJQsqaUBKTNV-1" source="z1cHuliVXPMH2H2w3VBW-194" target="z1cHuliVXPMH2H2w3VBW-188">
          <mxGeometry relative="1" as="geometry" />
        </mxCell>
        <mxCell id="z1cHuliVXPMH2H2w3VBW-191" value="true" style="edgeLabel;html=1;align=center;verticalAlign=middle;resizable=0;points=[];" vertex="1" connectable="0" parent="z1cHuliVXPMH2H2w3VBW-190">
          <mxGeometry x="0.0909" y="1" relative="1" as="geometry">
            <mxPoint as="offset" />
          </mxGeometry>
        </mxCell>
        <mxCell id="z1cHuliVXPMH2H2w3VBW-192" value="" style="edgeStyle=orthogonalEdgeStyle;rounded=0;orthogonalLoop=1;jettySize=auto;html=1;" edge="1" parent="WIyWlLk6GJQsqaUBKTNV-1" source="z1cHuliVXPMH2H2w3VBW-194" target="z1cHuliVXPMH2H2w3VBW-196">
          <mxGeometry relative="1" as="geometry" />
        </mxCell>
        <mxCell id="z1cHuliVXPMH2H2w3VBW-193" value="false" style="edgeLabel;html=1;align=center;verticalAlign=middle;resizable=0;points=[];" vertex="1" connectable="0" parent="z1cHuliVXPMH2H2w3VBW-192">
          <mxGeometry x="0.15" y="4" relative="1" as="geometry">
            <mxPoint y="-1" as="offset" />
          </mxGeometry>
        </mxCell>
        <mxCell id="z1cHuliVXPMH2H2w3VBW-194" value="(prime(a[i][j])" style="rhombus;whiteSpace=wrap;html=1;" vertex="1" parent="WIyWlLk6GJQsqaUBKTNV-1">
          <mxGeometry x="1240" y="3240" width="160" height="150" as="geometry" />
        </mxCell>
        <mxCell id="z1cHuliVXPMH2H2w3VBW-195" style="edgeStyle=orthogonalEdgeStyle;rounded=0;orthogonalLoop=1;jettySize=auto;html=1;" edge="1" parent="WIyWlLk6GJQsqaUBKTNV-1" source="z1cHuliVXPMH2H2w3VBW-196">
          <mxGeometry relative="1" as="geometry">
            <mxPoint x="1060" y="3360" as="targetPoint" />
          </mxGeometry>
        </mxCell>
        <mxCell id="z1cHuliVXPMH2H2w3VBW-196" value="f=0&lt;br&gt;j++" style="rounded=0;whiteSpace=wrap;html=1;" vertex="1" parent="WIyWlLk6GJQsqaUBKTNV-1">
          <mxGeometry x="1240" y="3490" width="120" height="60" as="geometry" />
        </mxCell>
        <mxCell id="z1cHuliVXPMH2H2w3VBW-197" value="i++" style="rounded=0;whiteSpace=wrap;html=1;" vertex="1" parent="WIyWlLk6GJQsqaUBKTNV-1">
          <mxGeometry x="920" y="3200" width="120" height="60" as="geometry" />
        </mxCell>
        <mxCell id="z1cHuliVXPMH2H2w3VBW-198" style="edgeStyle=orthogonalEdgeStyle;rounded=0;orthogonalLoop=1;jettySize=auto;html=1;" edge="1" parent="WIyWlLk6GJQsqaUBKTNV-1" source="z1cHuliVXPMH2H2w3VBW-201" target="z1cHuliVXPMH2H2w3VBW-203">
          <mxGeometry relative="1" as="geometry" />
        </mxCell>
        <mxCell id="z1cHuliVXPMH2H2w3VBW-199" style="edgeStyle=orthogonalEdgeStyle;rounded=0;orthogonalLoop=1;jettySize=auto;html=1;" edge="1" parent="WIyWlLk6GJQsqaUBKTNV-1" source="z1cHuliVXPMH2H2w3VBW-201" target="z1cHuliVXPMH2H2w3VBW-206">
          <mxGeometry relative="1" as="geometry" />
        </mxCell>
        <mxCell id="z1cHuliVXPMH2H2w3VBW-200" value="default" style="edgeLabel;html=1;align=center;verticalAlign=middle;resizable=0;points=[];" vertex="1" connectable="0" parent="z1cHuliVXPMH2H2w3VBW-199">
          <mxGeometry x="-0.2769" y="7" relative="1" as="geometry">
            <mxPoint y="-1" as="offset" />
          </mxGeometry>
        </mxCell>
        <mxCell id="z1cHuliVXPMH2H2w3VBW-201" value="choice==7" style="rhombus;whiteSpace=wrap;html=1;" vertex="1" parent="WIyWlLk6GJQsqaUBKTNV-1">
          <mxGeometry x="480" y="3820" width="80" height="80" as="geometry" />
        </mxCell>
        <mxCell id="z1cHuliVXPMH2H2w3VBW-202" style="edgeStyle=orthogonalEdgeStyle;rounded=0;orthogonalLoop=1;jettySize=auto;html=1;" edge="1" parent="WIyWlLk6GJQsqaUBKTNV-1" source="z1cHuliVXPMH2H2w3VBW-203" target="z1cHuliVXPMH2H2w3VBW-204">
          <mxGeometry relative="1" as="geometry" />
        </mxCell>
        <mxCell id="z1cHuliVXPMH2H2w3VBW-203" value="end" style="shape=parallelogram;perimeter=parallelogramPerimeter;whiteSpace=wrap;html=1;fixedSize=1;" vertex="1" parent="WIyWlLk6GJQsqaUBKTNV-1">
          <mxGeometry x="721" y="3830" width="120" height="60" as="geometry" />
        </mxCell>
        <mxCell id="z1cHuliVXPMH2H2w3VBW-204" value="end" style="ellipse;whiteSpace=wrap;html=1;" vertex="1" parent="WIyWlLk6GJQsqaUBKTNV-1">
          <mxGeometry x="1030" y="3830" width="120" height="80" as="geometry" />
        </mxCell>
        <mxCell id="z1cHuliVXPMH2H2w3VBW-205" style="edgeStyle=orthogonalEdgeStyle;rounded=0;orthogonalLoop=1;jettySize=auto;html=1;entryX=1;entryY=0.5;entryDx=0;entryDy=0;" edge="1" parent="WIyWlLk6GJQsqaUBKTNV-1" source="z1cHuliVXPMH2H2w3VBW-206" target="z1cHuliVXPMH2H2w3VBW-38">
          <mxGeometry relative="1" as="geometry">
            <Array as="points">
              <mxPoint x="2120" y="4070" />
              <mxPoint x="2120" y="1020" />
            </Array>
          </mxGeometry>
        </mxCell>
        <mxCell id="z1cHuliVXPMH2H2w3VBW-206" value="nhap lai tu 1-7" style="whiteSpace=wrap;html=1;shape=parallelogram;perimeter=parallelogramPerimeter;fixedSize=1;" vertex="1" parent="WIyWlLk6GJQsqaUBKTNV-1">
          <mxGeometry x="480" y="4030" width="190" height="80" as="geometry" />
        </mxCell>
      </root>
    </mxGraphModel>
  </diagram>
</mxfile>
